<svg xmlns="http://www.w3.org/2000/svg" viewBox="0 0 60 60"><path d="M54 46.503H6a1 1 0 100 2h48a1 1 0 100-2zM49 51.503H11a1 1 0 100 2h38a1 1 0 100-2zM45 56.503H15a1 1 0 100 2h30a1 1 0 100-2zM59 41.503h-7.819a24.93 24.93 0 005.784-10.434l.587-2.252-2.061 1.129c-.244.134-.487.268-.736.393a22.766 22.766 0 01-10.279 2.439h-.002c-8.771 0-16.658-4.87-20.583-12.708a22.968 22.968 0 01-1.632-16.306l.615-2.268-2.061 1.129a24.906 24.906 0 00-10.33 33.105 24.91 24.91 0 003.996 5.772H1a1 1 0 100 2h58a1 1 0 100-1.999z"/></svg>